<svg xmlns="http://www.w3.org/2000/svg" fill-rule="evenodd" clip-rule="evenodd" image-rendering="optimizeQuality" shape-rendering="geometricPrecision" text-rendering="geometricPrecision" viewBox="0 0 43349 43349"><path fill="#34a853" d="M2023 1560h39303c1020 0 1854 834 1854 1854v36522c0 1020-834 1854-1854 1854H2023c-1020 0-1854-834-1854-1854V3414c0-1020 834-1854 1854-1854zm27568 29941-7835-13533h-288l-7835 13533h15958zm-8128-15758h556l9785 16494v747H11545l20-927 9640-16314h258zm-345 6118h1112v5932h-1112v-5932zm0 7214h1112v1145h-1112v-1145zM12219 4249h28365v1483H12219V4249zm-1483 0H2764v1483h7972V4249zM1466 8328h40415v31331c0 510-417 927-927 927H2392c-510 0-927-417-927-927V8328z" class="color2b2a29 svgShape"/></svg>