<svg xmlns="http://www.w3.org/2000/svg" viewBox="0 0 32 32"><g fill="#34a853" class="color000000 svgShape" data-name="Layer 2"><path d="M20 13a5 5 0 0 1-5-5V3.14A2.939 2.939 0 0 1 15.23 2H9a3.009 3.009 0 0 0-3 3v22a3.009 3.009 0 0 0 3 3h14a3.009 3.009 0 0 0 3-3V12.82a2.772 2.772 0 0 1-1 .18Zm-5.293 10.293a1 1 0 1 1-1.414 1.414l-2-2a1 1 0 0 1 0-1.414l2-2a1 1 0 0 1 1.414 1.414L13.414 22Zm6-.586-2 2a1 1 0 0 1-1.414-1.414L18.586 22l-1.293-1.293a1 1 0 0 1 1.414-1.414l2 2a1 1 0 0 1 0 1.414Z" class="color000000 svgShape"/><path d="M24.953 7.643 19.21 2.721a3.157 3.157 0 0 0-.839-.51A1 1 0 0 0 17 3.14V8a3 3 0 0 0 3 3h5a1 1 0 0 0 1-1v-.08a3.008 3.008 0 0 0-1.047-2.277Z" class="color000000 svgShape"/></g></svg>