<svg xmlns="http://www.w3.org/2000/svg" enable-background="new 0 0 512 512" viewBox="0 0 512 512"><path fill="#34a853" d="M196.6,165.1c-83.3,0-151.1,67.6-151.1,150.8s67.8,150.8,151.1,150.8s151.1-67.6,151.1-150.8
		S280,165.1,196.6,165.1z M196.6,446.6c-72.3,0-131.1-58.7-131.1-130.8s58.8-130.8,131.1-130.8s131.1,58.7,131.1,130.8
		S268.9,446.6,196.6,446.6L196.6,446.6z" class="color000000 svgShape"/><path fill="#34a853" d="M200,232c-5.5,0-10,4.5-10,10v73.5l-35.8,35.7c-3.9,3.9-4,10.2-0.1,14.1c0,0,0,0,0,0c3.9,3.9,10.2,3.9,14.1,0
		c0,0,0,0,0,0l38.8-38.6c1.9-1.9,3-4.4,3-7.1V242C210,236.5,205.5,232,200,232z" class="color000000 svgShape"/><path fill="#34a853" d="M349 84.9c-33.8 0-63.8 21.8-74.3 53.9-24.6-10.8-51.2-16.4-78.1-16.4C89.7 122.4 2.8 209.1 2.8 315.8s87 193.4 193.9 193.4 193.9-86.8 193.9-193.4c0-27.1-5.7-53.9-16.8-78.7 40.9-13.7 63-57.9 49.4-98.9C412.5 106.4 382.6 84.9 349 84.9zM196.6 489.2c-95.9 0-173.9-77.8-173.9-173.4s78-173.4 173.9-173.4 173.9 77.8 173.9 173.4S292.5 489.2 196.6 489.2zM393 201c-7.5 8.7-17.4 14.9-28.5 18-17.2-29.6-41.9-54.1-71.6-71.1 8.3-31 40.2-49.4 71.2-41s49.4 40.2 41 71.2C402.9 186.6 398.7 194.4 393 201L393 201zM436 86c2.7 0 5.2-1.1 7.1-2.9l19.2-19.2c3.9-3.9 3.9-10.2 0-14.1s-10.2-3.9-14.1 0l0 0L428.9 69c-3.9 3.9-3.9 10.2 0 14.1C430.8 85 433.3 86 436 86L436 86zM349 50.1c5.5 0 10-4.5 10-10V12.8c0-5.5-4.5-10-10-10s-10 4.5-10 10v27.4C339 45.6 343.5 50.1 349 50.1zM255 83.1c3.9 3.9 10.2 3.9 14.1 0 3.9-3.9 3.9-10.2 0-14.1l-19.2-19.2c-3.9-3.9-10.2-3.9-14.1 0-3.9 3.9-3.9 10.2 0 14.1L255 83.1zM443 242.9c-3.9-3.9-10.2-3.9-14.1 0-3.9 3.9-3.9 10.2 0 14.1l19.2 19.2c3.9 3.9 10.2 3.9 14.1 0s3.9-10.2 0-14.1L443 242.9zM499.2 153h-27.4c-5.5 0-10 4.5-10 10s4.5 10 10 10h27.4c5.5 0 10-4.5 10-10S504.8 153 499.2 153L499.2 153z" class="color000000 svgShape"/></svg>