<svg xmlns="http://www.w3.org/2000/svg" viewBox="0 0 24 24"><path fill="#191E6E" d="M22 2.75H2c-1.104 0-2 .888-2 1.982v14.536c0 1.094.896 1.982 2 1.982h20c1.104 0 2-.888 2-1.982V4.732a1.992 1.992 0 0 0-2-1.982zM6.353 15.105H4.582L3.091 9.531a6.651 6.651 0 0 0-1.758-.707l.029-.128h2.696c.366.017.662.133.758.541l.583 2.949.179.888 1.637-4.377h1.771l-2.633 6.408zm2.263.008 1.046-6.417h1.675l-1.05 6.417H8.616zm4.584.092c-.75-.008-1.475-.165-1.867-.343l.234-1.441.22.103c.546.24.904.343 1.571.343.479 0 .996-.198 1.004-.627 0-.277-.22-.484-.867-.797-.633-.309-1.479-.822-1.467-1.743.008-1.247 1.171-2.122 2.825-2.122a4.19 4.19 0 0 1 1.5.272l-.229 1.387-.15-.07c-.3-.129-.7-.256-1.246-.244-.659 0-.955.281-.963.553 0 .301.358.5.946.793.963.458 1.412 1.016 1.404 1.747v.001c-.011 1.329-1.157 2.192-2.915 2.188zm7.251-.091s-.15-.735-.2-.962H18.1c-.063.169-.35.962-.35.962h-1.758l2.487-5.885c.17-.418.475-.533.875-.533h1.296L22 15.113l.001.001h-1.55z"/><path fill="#191E6E" d="m19.587 10.98-.116-.553c-.083.239-.229.627-.22.615 0 0-.529 1.429-.667 1.796h1.392c-.072-.322-.388-1.858-.389-1.858z"/></svg>